# xmcd
#
# Track frame offsets: 
#        150
#        15712
#        30919
#        46254
#        60494
#        74939
#        85591
#        100963
#        115696
#        130194
#        147839
#        162505
#        177478
#
# Disc length: 2576 seconds
#
# Revision: 0
# Processed by: cddbd v1.5.2PL0 Copyright (c) Steve Scherf et al.
# Submitted via: ExactAudioCopyFreeDBPlugin 1.0
#
DISCID=ad0a0e0d
DTITLE=John Moreland and the Black Gold Band - Things I Can't Control
DYEAR=2011
DGENRE=Country
TTITLE0=Brothers and Sisters
TTITLE1=Bastards of the Highway
TTITLE2=Black Cloud
TTITLE3=Small Town Boy
TTITLE4=Ruin My Night
TTITLE5=Pretty Much Empty
TTITLE6=Things I Can't Control
TTITLE7=Victory Song
TTITLE8=Drive into the Sunset
TTITLE9=The Enemy
TTITLE10=The Devil
TTITLE11=Your Place in Paradise
TTITLE12=Alright, Let's Go
EXTD=
EXTT0=
EXTT1=
EXTT2=
EXTT3=
EXTT4=
EXTT5=
EXTT6=
EXTT7=
EXTT8=
EXTT9=
EXTT10=
EXTT11=
EXTT12=
PLAYORDER=
